<svg width="26" height="20" viewBox="0 0 26 20" fill="none" xmlns="http://www.w3.org/2000/svg">
<path fill-rule="evenodd" clip-rule="evenodd" d="M26 3.80953C26 1.70558 24.2755 0 22.1482 0L3.85185 0C1.72454 0 0 1.70558 0 3.80953L0 16.1905C0 18.2945 1.72454 20 3.85185 20L22.1482 20C24.2755 20 26 18.2945 26 16.1905L26 3.80953ZM2.5532 16.0417L2.5532 3.95833C2.5532 3.03786 3.10249 2.33333 4.04256 2.33333L10.6383 2.33333C11.3359 2.33333 11.6575 3.65689 11.9149 4.29167L12.7693 6.25001C13.0268 6.88479 13.6538 7.08334 14.3514 7.08334L22.1277 7.08334C23.0678 7.08334 23.4042 7.29168 23.4042 7.91668L23.4042 16.0417C23.4042 16.9621 22.855 17.7084 21.9149 17.7084L4.04256 17.7084C3.10249 17.7084 2.5532 16.9621 2.5532 16.0417Z" fill="white"/>
</svg>
